<svg xmlns="http://www.w3.org/2000/svg" viewBox="0 0 64 32" role="img" aria-label="Carte Bancaire">
  <rect width="64" height="32" rx="8" fill="#fff"/>
  <path fill="#1B4DB1" d="M18 8h14a8 8 0 0 1 0 16H18z"/>
  <path fill="#25A1D8" d="M32 8h14a8 8 0 1 1 0 16H32z"/>
  <path fill="#fff" d="M21.6 20.7c-2.4 0-4.1-1.7-4.1-4.7 0-3 1.7-4.7 4.1-4.7 1.3 0 2.4.4 3.2 1.3l-1.2 1.4c-.5-.6-1.1-.9-1.9-.9-1.3 0-2.1 1-2.1 2.9 0 1.9.8 2.9 2.1 2.9.8 0 1.5-.3 2-.9l1.2 1.3c-.8 1-1.9 1.4-3.3 1.4Zm10.8-.2h-4.2v-9h4c1.9 0 3.2.8 3.2 2.4 0 1-.6 1.7-1.4 2 1 .2 1.8.9 1.8 2.1 0 1.7-1.4 2.5-3.4 2.5Zm-.4-7.3h-1.6v1.9H32c.8 0 1.3-.3 1.3-1s-.5-.9-1.3-.9Zm.2 3.4h-1.8v2.1h1.8c.9 0 1.4-.3 1.4-1 0-.8-.5-1.1-1.4-1.1Z"/>
</svg>
